<svg width="198" height="38" viewBox="0 0 198 38" fill="none" xmlns="http://www.w3.org/2000/svg">
<g clip-path="url(#clip0)">
<path d="M173.796 16.3883C174.471 15.5611 175.323 14.8967 176.291 14.4444C177.258 13.9922 178.314 13.7637 179.382 13.776C180.449 13.7883 181.5 14.0411 182.457 14.5155C183.413 14.9899 184.25 15.6738 184.906 16.5163L185.226 16.1835C186.34 14.893 187.888 14.0552 189.578 13.8284C191.134 13.552 192.737 13.7574 194.173 14.4171C195.054 14.8104 195.831 15.404 196.442 16.1506C197.053 16.8973 197.481 17.7764 197.693 18.7178C197.901 19.555 198.005 20.415 198 21.2777C198 24.0937 198 26.9224 198 29.7383C198 29.8919 198 30.0455 198 30.2119C197.993 30.3615 197.957 30.5084 197.894 30.6441C197.83 30.7798 197.741 30.9017 197.63 31.0027C197.52 31.1038 197.39 31.1821 197.25 31.233C197.109 31.284 196.959 31.3067 196.81 31.2998C196.084 31.2998 195.355 31.2998 194.621 31.2998C194.463 31.3071 194.304 31.2813 194.157 31.2241C194.009 31.1668 193.875 31.0794 193.763 30.9674C193.651 30.8554 193.563 30.7212 193.506 30.5735C193.449 30.4258 193.423 30.2677 193.43 30.1095C193.43 29.4311 193.43 28.7271 193.43 28.0487V21.5081C193.444 20.7943 193.3 20.0863 193.008 19.4346C192.69 18.7887 192.167 18.2656 191.522 17.9463C190.876 17.6271 190.144 17.5293 189.437 17.6682C188.561 17.7271 187.741 18.1196 187.146 18.7649C186.55 19.4102 186.225 20.2591 186.237 21.1369C186.237 21.9817 186.237 22.8393 186.237 23.6969V29.4439C186.25 29.6827 186.25 29.9219 186.237 30.1607C186.23 30.4494 186.112 30.7242 185.907 30.9272C185.701 31.1301 185.425 31.2454 185.136 31.2486C184.368 31.2486 183.6 31.2486 182.832 31.2486C182.669 31.2517 182.507 31.2197 182.357 31.1547C182.207 31.0896 182.073 30.9931 181.964 30.8717C181.855 30.7504 181.773 30.6069 181.724 30.4511C181.675 30.2953 181.66 30.1307 181.68 29.9687C181.68 28.3943 181.68 26.82 181.68 25.2328C181.68 23.9529 181.68 22.6729 181.68 21.3929C181.705 20.6025 181.529 19.8187 181.168 19.1146C180.796 18.5429 180.259 18.0981 179.628 17.8397C178.997 17.5813 178.302 17.5215 177.636 17.6682C176.711 17.7434 175.855 18.1815 175.253 18.8867C174.651 19.5919 174.352 20.5068 174.423 21.4313C174.423 24.1449 174.423 26.8584 174.423 29.5719C174.436 29.7765 174.436 29.9817 174.423 30.1863C174.413 30.4705 174.295 30.7403 174.093 30.9402C173.891 31.1401 173.619 31.2551 173.335 31.2614C172.559 31.2614 171.765 31.2614 170.954 31.2614C170.665 31.2519 170.391 31.1328 170.187 30.9284C169.982 30.724 169.863 30.4496 169.854 30.1607C169.854 29.9687 169.854 29.7767 169.854 29.5719V15.3899C169.854 14.4299 170.289 14.0076 171.261 13.982C171.671 13.982 172.081 13.982 172.541 13.982C172.881 13.982 173.206 14.1168 173.447 14.3569C173.687 14.5969 173.821 14.9225 173.821 15.2619C173.821 15.5819 173.821 15.9019 173.821 16.2219H173.898" fill="#3C373E"/>
<path d="M135.73 21.8025C135.789 21.6861 135.857 21.5748 135.935 21.4697C137.867 19.3194 139.774 17.1691 141.733 14.9931C142 14.654 142.346 14.3856 142.741 14.2115C143.136 14.0374 143.568 13.963 143.998 13.9947C144.613 13.9947 145.278 13.9947 145.867 13.9947H145.982C146.379 13.9947 146.801 13.9947 146.981 14.4427C147.16 14.8907 146.891 15.1851 146.635 15.4795C144.792 17.4762 142.94 19.4644 141.08 21.4441C140.952 21.5849 140.85 21.7257 140.709 21.8665C141.515 22.9033 142.296 23.9144 143.102 24.9256C144.382 26.5512 145.662 28.1639 146.942 29.7895C147.185 30.0967 147.467 30.4167 147.262 30.839C147.057 31.2614 146.622 31.2614 146.2 31.2614H143.781C143.416 31.2812 143.053 31.2069 142.726 31.0454C142.398 30.884 142.118 30.641 141.912 30.3399L137.701 24.7464L137.291 24.2216C136.728 24.8232 136.216 25.3608 135.704 25.9368C135.639 26.0582 135.612 26.1966 135.627 26.3336C135.627 27.4983 135.627 28.6503 135.627 29.8151C135.627 30.9798 135.205 31.2614 134.168 31.2614H132.479C131.519 31.2614 131.058 30.8006 131.058 29.8535C131.058 28.6503 131.058 27.4471 131.058 26.2312V8.9133C131.058 7.79973 131.352 7.42854 132.466 7.21095C133.106 7.07015 133.746 6.96775 134.373 6.86536C134.521 6.82451 134.676 6.81786 134.827 6.84591C134.978 6.87395 135.12 6.93595 135.244 7.02722C135.367 7.11849 135.468 7.23663 135.539 7.37268C135.61 7.50874 135.649 7.65915 135.653 7.81253C135.666 8.03847 135.666 8.26496 135.653 8.49091V21.6873C135.692 21.7395 135.745 21.7794 135.807 21.8025" fill="#3C373E"/>
<path d="M158.014 31.9014C154.174 31.8374 151.217 30.5575 149.323 27.3447C148.284 25.5227 147.917 23.3937 148.286 21.3289C148.578 19.1895 149.672 17.2408 151.345 15.8763C152.682 14.7643 154.306 14.0541 156.03 13.8283C157.703 13.5679 159.415 13.7307 161.009 14.3019C162.27 14.7087 163.416 15.4095 164.353 16.3464C165.29 17.2833 165.991 18.4295 166.398 19.6906C166.937 21.1409 167.094 22.7056 166.854 24.2343C166.615 25.7631 165.986 27.2044 165.028 28.4199C163.803 30.0191 162.046 31.1269 160.075 31.543C159.319 31.7094 158.539 31.799 158.014 31.8758V31.9014ZM157.681 17.6682C156.404 17.6267 155.163 18.0919 154.227 18.9624C153.292 19.8328 152.739 21.0379 152.689 22.3145C152.59 22.992 152.634 23.6828 152.819 24.3421C153.004 25.0014 153.325 25.6146 153.762 26.1419C154.199 26.6692 154.741 27.0988 155.355 27.4031C155.968 27.7073 156.639 27.8793 157.323 27.9079C157.973 27.9514 158.625 27.8621 159.24 27.6452C159.855 27.4284 160.419 27.0887 160.898 26.6467C161.377 26.2048 161.761 25.67 162.026 25.0748C162.292 24.4796 162.434 23.8366 162.442 23.1849C162.533 22.5025 162.478 21.8087 162.281 21.1491C162.084 20.4895 161.75 19.8791 161.3 19.358C160.85 18.8369 160.295 18.4169 159.671 18.1257C159.048 17.8344 158.369 17.6785 157.681 17.6682Z" fill="#3C373E"/>
<path d="M83.7249 31.9014C81.3716 31.8704 79.105 31.0091 77.3251 29.4695C76.362 28.6236 75.6001 27.5732 75.0952 26.3951C74.5903 25.2169 74.3551 23.9408 74.4067 22.6601C74.4041 21.5135 74.629 20.3778 75.0684 19.3188C75.5078 18.2598 76.153 17.2985 76.9667 16.4907C78.1957 15.2298 79.7736 14.3651 81.4977 14.0076C83.6924 13.4957 85.9954 13.7345 88.0383 14.6859C89.2256 15.2146 90.2743 16.0108 91.1026 17.0122C91.9309 18.0137 92.5161 19.1932 92.8126 20.4586C93.1501 21.6839 93.2231 22.967 93.0267 24.2226C92.8303 25.4783 92.369 26.6778 91.6734 27.7415C91.0697 28.6974 90.2807 29.5228 89.3531 30.1691C88.4254 30.8154 87.3778 31.2695 86.272 31.5046C85.4144 31.6966 84.544 31.7734 83.7121 31.9014H83.7249ZM78.8866 22.7881V23.3385C78.8866 23.5177 78.8866 23.6841 78.9762 23.8633C79.0958 24.7151 79.4554 25.5154 80.013 26.1704C80.5705 26.8255 81.3031 27.3083 82.1249 27.5624C82.961 27.8825 83.8716 27.955 84.7478 27.7711C85.624 27.5873 86.4287 27.1548 87.0656 26.5256C87.6894 25.9191 88.1484 25.1637 88.3992 24.3306C88.65 23.4975 88.6844 22.6142 88.4991 21.7641C88.3121 20.5324 87.6571 19.4203 86.6706 18.6594C85.6841 17.8985 84.4421 17.5475 83.2032 17.6795C81.9644 17.8114 80.8242 18.4162 80.0201 19.3678C79.216 20.3195 78.81 21.5446 78.8866 22.7881Z" fill="#3C373E"/>
<path d="M99.9036 16.2475C100.516 15.69 101.157 15.1645 101.823 14.6731C103.141 13.8825 104.697 13.5833 106.214 13.8284C107.441 13.9336 108.615 14.3766 109.606 15.1083C110.991 16.1437 111.912 17.6851 112.166 19.3962C112.284 19.9951 112.348 20.6034 112.358 21.2137C112.358 24.0425 112.358 26.884 112.358 29.7127C112.37 29.8703 112.37 30.0287 112.358 30.1863C112.351 30.4716 112.234 30.7431 112.031 30.9437C111.828 31.1443 111.555 31.2582 111.27 31.2614C110.514 31.2614 109.772 31.2614 109.017 31.2614C108.718 31.2614 108.432 31.1428 108.22 30.9315C108.009 30.7203 107.891 30.4338 107.891 30.1351C107.891 29.4695 107.891 28.8551 107.891 28.1383V21.5081C107.912 20.8099 107.781 20.1154 107.507 19.473C107.162 18.8056 106.61 18.2684 105.934 17.9428C105.257 17.6171 104.493 17.5208 103.756 17.6683C103.292 17.7069 102.839 17.8371 102.425 18.0513C102.011 18.2656 101.644 18.5596 101.344 18.9166C101.044 19.2735 100.818 19.6863 100.678 20.1311C100.539 20.5759 100.489 21.0439 100.531 21.5081C100.531 24.1961 100.531 26.8712 100.531 29.5719C100.531 29.7639 100.531 29.9559 100.531 30.1479C100.54 30.3143 100.512 30.4807 100.449 30.6352C100.387 30.7897 100.291 30.9287 100.169 31.0422C100.047 31.1557 99.9014 31.2411 99.7427 31.2922C99.5841 31.3434 99.4162 31.3591 99.2508 31.3382H97.2668C97.1023 31.3547 96.9362 31.3359 96.7795 31.2831C96.6228 31.2303 96.4791 31.1448 96.358 31.0322C96.2369 30.9195 96.1412 30.7825 96.0772 30.63C96.0132 30.4775 95.9824 30.3132 95.9869 30.1479C95.9869 29.9559 95.9869 29.7639 95.9869 29.5719V15.7227C95.9869 14.3147 96.3069 13.9948 97.7148 13.9948C98.0092 13.9948 98.2908 13.9948 98.5852 13.9948C98.7567 13.9813 98.9291 14.0051 99.0905 14.0647C99.2519 14.1243 99.3985 14.2181 99.5202 14.3398C99.6418 14.4614 99.7357 14.608 99.7952 14.7694C99.8548 14.9308 99.8786 15.1032 99.8652 15.2747C99.8652 15.5947 99.8652 15.9275 99.8652 16.1835" fill="#3C373E"/>
<path d="M56.5128 23.7481V29.6743C56.5091 29.92 56.4791 30.1646 56.4232 30.4039C56.3698 30.6509 56.2319 30.8717 56.0334 31.0282C55.8349 31.1847 55.588 31.2672 55.3353 31.2614C54.5545 31.2614 53.7609 31.2614 52.9673 31.2614C52.6917 31.268 52.423 31.1743 52.2111 30.9977C51.9993 30.8212 51.8587 30.5738 51.8154 30.3015C51.7639 30.0704 51.7382 29.8343 51.7386 29.5975V17.6682C51.7386 17.1691 51.7386 17.1691 51.2266 17.1563C50.7146 17.1435 50.3178 17.1563 49.8698 17.1563C49.7309 17.1649 49.5917 17.1458 49.4602 17.1001C49.3288 17.0545 49.2077 16.9831 49.1041 16.8902C49.0004 16.7973 48.9163 16.6847 48.8566 16.559C48.7969 16.4332 48.7628 16.2969 48.7563 16.1579C48.6794 15.6745 48.6794 15.1821 48.7563 14.6987C48.8331 14.0587 49.2683 13.7516 50.0362 13.7132C50.4202 13.7132 50.817 13.7132 51.201 13.7132C51.777 13.7132 51.7642 13.7132 51.777 13.1756C51.7517 12.0391 51.979 10.9112 52.4426 9.87327C52.8442 9.06559 53.416 8.35448 54.1186 7.78884C54.8212 7.2232 55.638 6.81645 56.5128 6.59656C58.3422 6.06136 60.2956 6.13321 62.0807 6.80136H62.2215C63.1687 7.19815 63.3478 7.59494 62.9639 8.52931C62.8231 8.8493 62.6951 9.18209 62.5415 9.51488C62.4992 9.66953 62.4217 9.81227 62.315 9.9319C62.2082 10.0515 62.0752 10.1448 61.9264 10.2043C61.7775 10.2638 61.6169 10.2881 61.4571 10.275C61.2973 10.262 61.1428 10.2121 61.0055 10.1293C60.2674 9.8394 59.4566 9.79012 58.6888 9.98846C58.1088 10.1093 57.5839 10.4157 57.1936 10.8615C56.8033 11.3072 56.5688 11.8679 56.5256 12.4588C56.3977 13.7388 56.3977 13.7388 57.6904 13.7388H60.1351C61.2103 13.7388 61.6327 14.1739 61.6455 15.2235C61.6646 15.5389 61.6646 15.8552 61.6455 16.1707C61.6388 16.4412 61.5266 16.6984 61.3329 16.8873C61.1392 17.0762 60.8793 17.1819 60.6087 17.1819C59.8791 17.1819 59.1496 17.1819 58.4328 17.1819C57.9596 17.2076 57.4853 17.2076 57.012 17.1819C56.6408 17.1819 56.5512 17.3098 56.5512 17.6554C56.5512 19.6906 56.5512 21.7257 56.5512 23.7609" fill="#3C373E"/>
<path d="M117.477 21.8793C117.477 20.4842 117.477 19.0762 117.477 17.6682C117.477 17.2715 117.349 17.1947 116.991 17.1947C116.505 17.2331 116.018 17.2331 115.532 17.1947C115.249 17.1981 114.976 17.0898 114.772 16.8934C114.569 16.6969 114.451 16.428 114.444 16.1451C114.386 15.6433 114.386 15.1365 114.444 14.6347C114.462 14.4226 114.556 14.2242 114.709 14.076C114.862 13.9279 115.063 13.8399 115.276 13.8284C115.854 13.7602 116.435 13.7303 117.017 13.7388C117.349 13.7388 117.452 13.6492 117.439 13.3036C117.439 12.0236 117.439 10.7436 117.439 9.46368C117.41 9.2876 117.418 9.10741 117.463 8.93467C117.508 8.76194 117.588 8.60049 117.699 8.46067C117.81 8.32086 117.949 8.20578 118.107 8.12281C118.265 8.03985 118.439 7.99084 118.617 7.97893L120.716 7.53094C120.861 7.49065 121.013 7.48318 121.161 7.50908C121.309 7.53498 121.449 7.59359 121.572 7.68065C121.695 7.76771 121.796 7.88102 121.87 8.01233C121.943 8.14364 121.986 8.28965 121.996 8.43971C122.015 8.67398 122.015 8.90942 121.996 9.14369V13.1116C121.996 13.6748 121.996 13.6748 122.572 13.6748H125.644C125.861 13.6558 126.079 13.6558 126.296 13.6748C126.52 13.7023 126.727 13.8045 126.885 13.9648C127.043 14.1252 127.142 14.3342 127.167 14.5579C127.237 15.1189 127.237 15.6865 127.167 16.2475C127.132 16.4688 127.024 16.6718 126.858 16.823C126.693 16.9742 126.481 17.0647 126.258 17.0795C126.041 17.0985 125.822 17.0985 125.605 17.0795H122.418C122.149 17.0795 122.034 17.1563 122.034 17.4634C122.034 19.9466 122.034 22.4425 122.034 24.9384C122.038 25.3342 122.081 25.7286 122.162 26.116C122.225 26.4058 122.349 26.679 122.526 26.9171C122.702 27.1553 122.928 27.3531 123.187 27.4972C123.446 27.6413 123.733 27.7285 124.029 27.753C124.324 27.7775 124.622 27.7387 124.901 27.6391C125.296 27.5142 125.677 27.3513 126.04 27.1528C126.655 26.8456 127 26.9224 127.32 27.5239C127.619 28.1189 127.884 28.7299 128.114 29.3543C128.197 29.5561 128.203 29.7816 128.129 29.9873C128.056 30.1929 127.909 30.3641 127.717 30.4679C127.098 31.0076 126.355 31.3858 125.554 31.5686C123.852 32.0686 122.024 31.9086 120.434 31.1206C119.719 30.7663 119.096 30.2495 118.616 29.6117C118.136 28.9739 117.812 28.2326 117.669 27.4471C117.551 26.7191 117.486 25.9832 117.477 25.2456C117.477 24.132 117.477 23.0057 117.477 21.8793Z" fill="#3C373E"/>
<path d="M67.2645 16.2603C67.6997 15.8123 68.0581 15.4027 68.4549 15.0571C69.066 14.5263 69.7864 14.1365 70.565 13.9153C71.3437 13.6941 72.1615 13.6469 72.9604 13.7772C73.3948 13.8248 73.8235 13.9148 74.2403 14.046C74.9827 14.2764 75.1875 14.6347 75.0083 15.3259C74.8291 16.0171 74.7011 16.6059 74.5219 17.1435C74.4892 17.2893 74.4247 17.4261 74.3328 17.5439C74.241 17.6618 74.1241 17.7579 73.9907 17.8252C73.8573 17.8925 73.7106 17.9294 73.5612 17.9333C73.4118 17.9371 73.2634 17.9078 73.1267 17.8475C72.2625 17.541 71.3261 17.5008 70.4388 17.7323C69.7822 17.9239 69.1983 18.3081 68.7624 18.8352C68.3266 19.3623 68.0589 20.0081 67.9941 20.689C67.9083 21.2521 67.874 21.8219 67.8917 22.3913C67.8917 24.772 67.8917 27.1656 67.8917 29.5463C67.9045 29.7381 67.9045 29.9305 67.8917 30.1223C67.8817 30.4143 67.7587 30.691 67.5485 30.894C67.3384 31.097 67.0575 31.2104 66.7653 31.2103C65.9718 31.2103 65.191 31.2103 64.4102 31.2103C64.1044 31.2139 63.8091 31.0983 63.5869 30.8881C63.3648 30.6779 63.2331 30.3895 63.2198 30.0839C63.2198 29.9047 63.2198 29.7127 63.2198 29.5335V15.6203C63.2068 15.42 63.2068 15.2191 63.2198 15.0187C63.2274 14.7862 63.3181 14.564 63.4754 14.3926C63.6328 14.2211 63.8463 14.1118 64.0774 14.0844C64.7796 14.0139 65.4871 14.0139 66.1894 14.0844C66.3375 14.0923 66.4825 14.1301 66.6156 14.1956C66.7488 14.261 66.8673 14.3526 66.9642 14.465C67.061 14.5774 67.1341 14.7082 67.1791 14.8495C67.2242 14.9909 67.2401 15.1398 67.2261 15.2875C67.2463 15.6243 67.2463 15.9619 67.2261 16.2987" fill="#3C373E"/>
<path d="M16.2068 16.6955L15.2853 15.7867L8.51427 22.5577C7.61691 23.4523 7.10411 24.6618 7.08498 25.9288C7.06586 27.1958 7.54192 28.4202 8.41187 29.3415V29.4055L15.0677 36.0613C16.4081 34.7176 17.1609 32.8971 17.1609 30.999C17.1609 29.101 16.4081 27.2805 15.0677 25.9368L14.1845 25.0536L15.8868 23.3641C16.81 22.5201 17.3618 21.3451 17.4218 20.0957C17.4817 18.8464 17.045 17.624 16.2068 16.6955Z" fill="#3C373E"/>
<path d="M35.1119 15.1083L34.0495 14.046L22.2867 2.3087C21.6199 2.97235 21.0907 3.7612 20.7297 4.62993C20.3686 5.49867 20.1828 6.43017 20.1828 7.37095C20.1828 8.31173 20.3686 9.24323 20.7297 10.112C21.0907 10.9807 21.6199 11.7696 22.2867 12.4332L28.9809 19.1402L22.2355 25.8984C21.5687 26.562 21.0395 27.3509 20.6785 28.2196C20.3174 29.0884 20.1316 30.0199 20.1316 30.9606C20.1316 31.9014 20.3174 32.8329 20.6785 33.7017C21.0395 34.5704 21.5687 35.3592 22.2355 36.0229L34.6383 23.6201L35.0607 23.1977C36.1368 22.1299 36.7462 20.6795 36.7558 19.1636C36.7654 17.6477 36.1744 16.1896 35.1119 15.1083Z" fill="#3C373E"/>
<path d="M15.1445 2.3727L15.0805 2.3087L2.38325 15.0187C1.94477 15.4562 1.59689 15.976 1.35953 16.5481C1.12218 17.1203 1 17.7336 1 18.353C1 18.9725 1.12218 19.5858 1.35953 20.1579C1.59689 20.7301 1.94477 21.2498 2.38325 21.6873L4.1624 23.4665L15.1445 12.5484C15.8159 11.8821 16.3488 11.0895 16.7125 10.2163C17.0762 9.34305 17.2634 8.40648 17.2634 7.46055C17.2634 6.51462 17.0762 5.57805 16.7125 4.70482C16.3488 3.8316 15.8159 3.03899 15.1445 2.3727Z" fill="#3C373E"/>
</g>
<defs>
<clipPath id="clip0">
<path d="M0 0H197.718V37.5415H0V0Z" fill="white"/>
</clipPath>
</defs>
</svg>