<?xml version="1.0" encoding="UTF-8" standalone="no"?>
<svg width="461px" height="136px" viewBox="0 0 461 136" version="1.1" xmlns="http://www.w3.org/2000/svg" xmlns:xlink="http://www.w3.org/1999/xlink">
    <!-- Generator: Sketch 39.1 (31720) - http://www.bohemiancoding.com/sketch -->
    <title>Page 1</title>
    <desc>Created with Sketch.</desc>
    <defs>
        <polygon id="path-1" points="24.046752 32.0867174 24.046752 0.305288845 0.179151699 0.305288845 0.179151699 32.0867174 24.046752 32.0867174"></polygon>
        <polygon id="path-3" points="15.8841138 0.03128 0.566732838 0.03128 0.566732838 15.257432 15.8841138 15.257432 15.8841138 0.03128"></polygon>
    </defs>
    <g id="Welcome" stroke="none" stroke-width="1" fill="none" fill-rule="evenodd">
        <g id="Desktop-HD" transform="translate(-489.000000, -62.000000)">
            <g id="Page-1" transform="translate(489.000000, 62.000000)">
                <path d="M185.580997,57.511952 L69.3022746,82.714112 L179.462252,29.606792 L185.580997,57.511952 Z M115.621706,131.137592 C98.4699331,134.854472 81.506934,124.425992 76.9784062,107.755112 L139.708878,109.619672 C136.138584,120.133832 127.301081,128.605952 115.621706,131.137592 L115.621706,131.137592 Z M184.858731,15.910232 L63.4769505,75.300752 L29.7192074,74.590832 L40.2084842,122.426792 L70.5518774,107.565392 L72.6961056,107.628632 C77.2841382,127.080032 96.7894328,139.393472 116.495813,135.123752 C130.069085,132.182072 140.260837,122.120792 143.999386,109.746152 L205.837285,111.582152 L184.858731,15.910232 Z" id="Fill-1" fill="#000000"></path>
                <polygon id="Fill-3" fill="#F3B837" points="17.3559367 85.00442 0.00102594648 99.03146 14.9100802 82.76042"></polygon>
                <polygon id="Fill-5" fill="#F3B837" points="21.6306453 104.498864 1.77242515 107.110064 20.9227422 101.267504"></polygon>
                <polygon id="Fill-7" fill="#F3B837" points="23.3095041 121.062644 2.94036262 112.439564 24.5939891 118.010804"></polygon>
                <path d="M211.850767,112.319408 C210.906897,112.319408 210.057413,111.668648 209.84812,110.713928 L188.867514,15.039968 C188.627443,13.940408 189.32919,12.853088 190.43516,12.614408 C191.543183,12.367568 192.63479,13.071368 192.876913,14.172968 L213.857519,109.844888 C214.099642,110.946488 213.395843,112.031768 212.289872,112.272488 C212.142136,112.305128 211.9944,112.319408 211.850767,112.319408" id="Fill-9" fill="#000000"></path>
                <polygon id="Fill-11" fill="#000000" points="231.987634 36.463436 232.457518 60.568076 226.369552 61.887956 222.470955 52.916036 222.542771 62.899796 216.54714 63.803516 207.820439 42.465116 213.452885 40.877996 217.115514 50.449676 217.232472 39.662156 222.118029 38.999156 226.412641 48.799316 226.102805 37.738436"></polygon>
                <polygon id="Fill-13" fill="#000000" points="252.372781 56.434424 239.610006 59.200664 234.586972 36.297584 246.764957 33.657824 248.053546 39.535064 242.047655 41.234384 242.917658 44.214824 248.623972 42.978584 249.658126 47.695064 244.331412 48.849704 244.912098 51.497624 251.000064 50.177744"></polygon>
                <path d="M255.608411,32.594168 C255.752043,33.253088 255.811548,33.918128 255.782822,34.583168 C255.756147,35.250248 255.639189,35.880608 255.431948,36.472208 C255.224707,37.067888 254.921027,37.616648 254.520907,38.118488 C254.118736,38.622368 253.618075,39.042608 253.01687,39.375128 L252.916327,39.336368 C253.0497,38.738648 253.146139,38.306168 253.199488,38.038928 C253.252838,37.773728 253.279512,37.565648 253.275408,37.412648 C253.273357,37.261688 253.263097,37.116848 253.242578,36.978128 C253.224111,36.841448 253.205644,36.600728 253.191281,36.258008 L250.724905,36.610928 L249.563534,32.989928 L255.171358,31.439528 C255.34782,31.686368 255.493505,32.069888 255.608411,32.594168" id="Fill-15" fill="#000000"></path>
                <path d="M241.243929,75.370112 C242.663839,74.758112 243.254784,73.909472 243.016764,72.822152 L242.977778,72.646712 C242.79516,72.097952 242.444286,71.665472 241.927209,71.351312 C241.40808,71.037152 240.728904,70.918832 239.887628,71.000432 L241.243929,75.370112 Z M253.651726,85.668032 L248.579446,87.561152 L243.382001,82.467272 L244.639812,88.201712 L238.576468,89.911232 L232.896828,67.089752 C232.775767,67.093832 232.708054,67.067312 232.695743,67.010192 C232.664964,66.875552 233.305155,66.665432 234.612211,66.381872 C236.737972,65.920832 238.596987,65.604632 240.1831,65.433272 C241.771265,65.261912 243.125515,65.349632 244.243796,65.696432 C245.362078,66.043232 246.277222,66.698072 246.989229,67.660952 C247.701236,68.625872 248.255247,70.008992 248.651262,71.812352 C249.071901,73.734032 248.610225,75.776072 247.266235,77.936432 L253.651726,85.668032 Z" id="Fill-17" fill="#000000"></path>
                <polygon id="Fill-19" fill="#000000" points="268.60982 83.401592 255.847046 86.167832 250.824012 63.264752 263.001997 60.624992 264.292637 66.502232 258.286747 68.201552 259.154697 71.181992 264.861012 69.945752 265.895166 74.662232 260.568452 75.816872 261.149137 78.464792 267.237104 77.144912"></polygon>
                <polygon id="Fill-21" fill="#000000" points="317.352127 24.834212 317.969747 75.636332 302.510785 75.821972 302.29944 58.486052 294.892107 58.573772 295.1014 75.909692 280.141048 74.820332 279.545999 25.731812 293.277267 25.566572 293.513235 44.936372 303.858879 44.811932 303.620859 24.999452"></polygon>
                <polygon id="Fill-23" fill="#000000" points="338.876484 19.612832 339.494104 70.412912 323.397004 70.608752 322.781436 19.804592"></polygon>
                <path d="M356.704562,46.084892 C359.932189,45.411692 361.532666,43.887812 361.505991,41.517332 L361.499836,41.135852 C361.356203,39.909812 360.8104,38.859212 359.864477,37.979972 C358.918554,37.102772 357.54789,36.568292 355.756587,36.378572 L356.704562,46.084892 Z M378.17557,72.882332 L366.762941,74.671412 L358.108056,61.819412 L358.259897,74.328692 L344.856932,75.314012 L342.846077,25.227932 C342.58959,25.189172 342.460321,25.105532 342.458269,24.979052 C342.456217,24.683252 343.880231,24.515972 346.734414,24.483332 C351.373744,24.426212 355.39135,24.558812 358.779025,24.877052 C362.170805,25.197332 364.957275,25.958252 367.144593,27.159812 C369.329859,28.363412 370.959062,30.121892 372.03015,32.437292 C373.101238,34.752692 373.661405,37.877972 373.708599,41.815172 C373.759896,46.007372 371.913192,50.073092 368.174643,54.012332 L378.17557,72.882332 Z" id="Fill-25" fill="#000000"></path>
                <polygon id="Fill-27" fill="#000000" points="397.06386 18.915968 397.68148 69.718088 381.584379 69.911888 380.968812 19.107728"></polygon>
                <polygon id="Fill-29" fill="#000000" points="432.027706 68.99348 422.108855 68.48756 413.925906 55.18676 415.097537 69.5096 404.191726 69.64016 403.701323 29.19308 413.925906 29.07068 421.522014 45.87008 421.302461 27.7304 431.5332 28.23428"></polygon>
                <g id="Group-33" transform="translate(436.012274, 37.017147)">
                    <mask id="mask-2" fill="white">
                        <use xlink:href="#path-1"></use>
                    </mask>
                    <g id="Clip-32"></g>
                    <path d="M24.0449053,20.5941526 C24.0859432,24.1682326 23.6776165,26.5570726 22.8137695,27.7586326 C20.8213815,30.5881126 17.552716,32.0303926 12.9975136,32.0854726 C11.0010217,32.1099526 9.21177104,31.7733526 7.63181346,31.0777126 C6.05185587,30.3820726 4.71402166,29.3579926 3.6203627,28.0075126 C2.52259997,26.6570326 1.68337574,25.0005526 1.10063814,23.0339926 C0.522004324,21.0674326 0.212168486,18.8275126 0.181390091,16.3121926 C0.0911068006,8.79479259 2.73189305,3.84983259 8.11195641,1.48139259 C9.75552268,0.722512593 11.493476,0.328792593 13.3319721,0.306352593 C16.5288214,0.269632593 19.7585009,1.18355259 23.0333221,3.05219259 L18.931588,10.9225126 C18.0390146,9.71687259 16.2087261,9.12935259 13.4386706,9.16199259 C11.8422978,9.18239259 10.6378367,9.82499259 9.82733893,11.0918326 C9.01684121,12.3586726 8.62492965,14.1191926 8.65160426,16.3693126 C8.6680194,17.5341526 8.79113298,18.6051526 9.03120446,19.5823126 C9.26922404,20.5594726 9.59957881,21.3979126 10.0202169,22.0935526 C10.438803,22.7912326 10.9538282,23.3277526 11.5570847,23.7051526 C12.1603412,24.0805126 12.8477254,24.2641126 13.621289,24.2539126 C15.9112016,24.2273926 17.0479503,23.3665126 17.0274314,21.6712726 C17.0253795,21.4856326 17.0110162,21.3795526 16.9822897,21.3550726 L13.584355,21.1163926 L12.970839,13.3399126 L23.4334412,12.9359926 C23.6324748,14.2048726 23.782263,15.4737526 23.878702,16.7426326 C23.9710372,18.0115126 24.0284902,19.2967126 24.0449053,20.5941526" id="Fill-31" fill="#000000" mask="url(#mask-2)"></path>
                </g>
                <path d="M397.95233,82.761032 C397.95233,86.965472 394.523617,90.374312 390.294665,90.374312 C386.063662,90.374312 382.634949,86.965472 382.634949,82.761032 C382.634949,78.556592 386.063662,75.147752 390.294665,75.147752 C394.523617,75.147752 397.95233,78.556592 397.95233,82.761032" id="Fill-34" fill="#F3B837"></path>
                <g id="Group-38" transform="translate(322.147196, 0.649740)">
                    <mask id="mask-4" fill="white">
                        <use xlink:href="#path-3"></use>
                    </mask>
                    <g id="Clip-37"></g>
                    <path d="M15.8841138,7.644152 C15.8841138,11.848592 12.4554007,15.257432 8.22644929,15.257432 C3.99544599,15.257432 0.566732838,11.848592 0.566732838,7.644152 C0.566732838,3.439712 3.99544599,0.030872 8.22644929,0.030872 C12.4554007,0.030872 15.8841138,3.439712 15.8841138,7.644152" id="Fill-36" fill="#F3B837" mask="url(#mask-4)"></path>
                </g>
            </g>
        </g>
    </g>
</svg>